<svg id="visual" viewBox="0 0 900 600" width="900" height="600" xmlns="http://www.w3.org/2000/svg" xmlns:xlink="http://www.w3.org/1999/xlink" version="1.1"><rect x="0" y="0" width="900" height="600" fill="#001220"></rect><defs><linearGradient id="grad1_0" x1="33.3%" y1="0%" x2="100%" y2="100%"><stop offset="20%" stop-color="#001220" stop-opacity="1"></stop><stop offset="80%" stop-color="#001220" stop-opacity="1"></stop></linearGradient></defs><defs><linearGradient id="grad2_0" x1="0%" y1="0%" x2="66.7%" y2="100%"><stop offset="20%" stop-color="#001220" stop-opacity="1"></stop><stop offset="80%" stop-color="#001220" stop-opacity="1"></stop></linearGradient></defs><g transform="translate(900, 0)"><path d="M0 486.7C-42.5 433.8 -85 380.9 -151.9 366.8C-218.8 352.7 -310.1 377.3 -344.2 344.2C-378.3 311 -355.3 220.1 -369.6 153.1C-383.8 86.1 -435.3 43 -486.7 0L0 0Z" fill="#FBAE3C"></path></g><g transform="translate(0, 600)"><path d="M0 -486.7C71.1 -488.2 142.1 -489.6 186.3 -449.7C230.4 -409.8 247.7 -328.6 275.8 -275.8C303.9 -222.9 342.7 -198.5 379.7 -157.3C416.7 -116.1 451.7 -58 486.7 0L0 0Z" fill="#FBAE3C"></path></g></svg>