<?xml version="1.0" standalone="no"?>
<!DOCTYPE svg PUBLIC "-//W3C//DTD SVG 20010904//EN"
 "http://www.w3.org/TR/2001/REC-SVG-20010904/DTD/svg10.dtd">
<svg version="1.0" xmlns="http://www.w3.org/2000/svg"
 width="204.000000pt" height="192.000000pt" viewBox="0 0 204.000000 192.000000"
 preserveAspectRatio="xMidYMid meet">
<metadata>
Created by potrace 1.10, written by Peter Selinger 2001-2011
</metadata>
<g transform="translate(0.000000,192.000000) scale(0.100000,-0.100000)"
fill="#000000" stroke="none">
<path d="M958 1278 c-19 -35 -76 -136 -128 -225 l-93 -163 -27 53 c-47 94 -83
148 -91 140 -7 -8 -42 -67 -186 -318 -41 -71 -84 -145 -95 -162 l-20 -33 677
0 677 0 -15 24 c-18 27 -185 318 -206 359 -8 15 -17 27 -20 27 -6 0 -35 -49
-78 -132 -13 -27 -27 -48 -32 -48 -4 0 -17 19 -29 43 -12 23 -51 92 -87 152
-36 61 -95 163 -132 228 -37 64 -70 117 -74 117 -4 0 -23 -28 -41 -62z m82
-75 c12 -27 38 -70 57 -96 18 -26 31 -53 27 -59 -4 -6 -3 -8 3 -5 6 4 14 -5
18 -21 4 -15 12 -33 18 -41 7 -8 24 -37 39 -65 14 -28 31 -50 38 -48 7 2 9 -5
5 -18 -5 -16 -3 -19 11 -13 12 4 15 3 10 -6 -10 -16 31 -61 55 -61 10 0 39 27
65 60 50 64 64 72 64 40 0 -11 9 -29 20 -40 11 -11 17 -20 14 -20 -3 0 8 -19
25 -42 17 -23 31 -48 31 -54 0 -7 6 -17 13 -21 7 -4 18 -25 24 -45 l11 -38
-593 0 c-335 0 -596 4 -599 9 -3 5 1 14 10 21 8 7 13 19 10 26 -2 6 6 22 20
35 13 12 24 31 24 42 0 11 3 17 7 14 7 -8 33 39 33 61 0 8 3 12 7 9 3 -4 11 3
18 16 27 51 58 103 69 116 9 12 8 13 -4 7 -8 -4 -6 0 4 8 30 24 36 21 81 -39
16 -22 35 -46 41 -52 14 -14 44 -17 44 -5 0 5 7 17 16 28 8 10 13 12 9 4 -3
-8 0 -7 7 4 41 59 58 88 58 98 0 6 10 25 23 42 13 17 29 46 36 64 8 17 18 32
23 32 6 0 7 7 4 16 -3 9 -2 12 4 9 6 -4 17 9 24 27 27 64 45 64 76 1z"/>
</g>
</svg>
