<?xml version="1.0" standalone="no"?>
<!DOCTYPE svg PUBLIC "-//W3C//DTD SVG 20010904//EN"
 "http://www.w3.org/TR/2001/REC-SVG-20010904/DTD/svg10.dtd">
<svg version="1.0" xmlns="http://www.w3.org/2000/svg"
 width="225.000000pt" height="225.000000pt" viewBox="0 0 225.000000 225.000000"
 preserveAspectRatio="xMidYMid meet">
<metadata>
Created by potrace 1.10, written by Peter Selinger 2001-2011
</metadata>
<g transform="translate(0.000000,225.000000) scale(0.100000,-0.100000)"
fill="#000000" stroke="none">
<path d="M645 2240 c-11 -5 -119 -107 -239 -228 -193 -194 -219 -224 -219
-252 0 -28 29 -61 254 -286 l254 -254 -72 -72 c-119 -120 -127 -97 143 -369
126 -126 239 -232 251 -235 31 -8 59 10 136 84 l67 67 254 -254 c225 -225 258
-254 286 -254 28 0 58 26 258 226 216 216 226 228 225 263 -1 35 -18 54 -252
288 l-250 251 74 76 c114 116 122 97 -153 371 -274 275 -255 267 -371 153
l-76 -74 -250 248 c-153 153 -260 251 -275 254 -14 3 -34 2 -45 -3z m57 -37
c2 -5 114 -117 249 -250 159 -158 252 -243 265 -243 12 0 55 31 98 70 42 39
79 70 82 70 23 0 84 -54 240 -212 171 -173 214 -221 214 -241 0 -5 -24 -34
-53 -65 -62 -66 -87 -101 -87 -121 0 -8 113 -128 250 -266 153 -155 250 -259
250 -271 0 -30 -420 -444 -450 -444 -18 0 -87 62 -270 245 -195 194 -252 245
-272 245 -19 0 -48 -20 -97 -65 -43 -39 -80 -65 -93 -65 -32 0 -438 407 -438
439 0 15 24 49 65 93 45 49 65 78 65 96 0 20 -53 79 -245 272 -183 183 -245
252 -245 270 0 33 414 450 446 450 12 0 24 -3 26 -7z"/>
<path d="M518 1953 c-71 -70 -138 -142 -149 -160 l-21 -33 21 -32 c11 -18 109
-122 219 -230 140 -139 206 -198 221 -198 16 0 64 41 153 128 137 135 173 181
164 210 -3 9 -102 113 -219 230 -153 152 -220 212 -236 212 -16 0 -63 -39
-153 -127z m439 -473 c-78 -79 -142 -145 -143 -147 0 -1 -97 94 -215 212
l-215 215 146 145 145 145 212 -213 213 -212 -143 -145z"/>
<path d="M1043 1387 c-253 -253 -333 -338 -333 -356 0 -35 286 -321 321 -321
34 0 689 655 689 689 0 36 -284 321 -319 321 -20 0 -97 -71 -358 -333z m507
158 l145 -145 -330 -330 -330 -330 -148 147 -147 148 327 327 c180 181 330
328 333 328 3 0 70 -65 150 -145z"/>
<path d="M1468 1003 c-71 -70 -138 -142 -149 -160 l-21 -33 21 -32 c11 -18
109 -122 219 -231 140 -138 206 -197 221 -197 16 0 64 41 153 127 137 135 173
181 164 211 -3 9 -102 113 -219 230 -153 152 -220 212 -236 212 -16 0 -63 -39
-153 -127z m439 -473 c-78 -79 -142 -145 -143 -147 0 -1 -97 94 -215 212
l-215 215 146 145 145 145 212 -213 213 -212 -143 -145z"/>
<path d="M37 868 c-28 -22 -34 -59 -26 -155 25 -297 236 -565 523 -664 97 -34
251 -53 296 -37 52 18 66 75 30 121 -17 21 -31 26 -92 32 -179 17 -293 69
-414 190 -118 117 -172 236 -190 418 -5 56 -11 71 -32 87 -28 23 -70 26 -95 8z
m71 -41 c6 -7 15 -50 21 -95 21 -165 81 -290 196 -406 115 -116 259 -185 423
-201 56 -5 75 -11 83 -26 11 -21 2 -44 -28 -72 -18 -16 -22 -16 -69 2 -27 11
-85 29 -129 40 -274 73 -478 284 -545 562 -12 46 -26 101 -32 123 -11 36 -11
40 16 62 31 27 49 30 64 11z"/>
<path d="M353 824 c-24 -24 -25 -30 -21 -100 14 -209 207 -394 413 -394 46 0
60 4 80 25 31 30 32 66 2 101 -18 21 -37 29 -85 35 -76 11 -125 35 -173 86
-47 49 -68 91 -75 150 -8 68 -22 99 -50 112 -38 17 -63 13 -91 -15z m84 -36
c6 -7 13 -35 17 -61 9 -74 61 -163 121 -208 56 -42 121 -69 166 -69 16 0 38
-9 50 -21 20 -20 20 -21 2 -41 -43 -48 -220 8 -311 99 -78 78 -128 210 -108
287 7 28 45 37 63 14z"/>
</g>
</svg>
