<?xml version="1.0" standalone="no"?>
<!DOCTYPE svg PUBLIC "-//W3C//DTD SVG 20010904//EN"
 "http://www.w3.org/TR/2001/REC-SVG-20010904/DTD/svg10.dtd">
<svg version="1.0" xmlns="http://www.w3.org/2000/svg"
 width="200.000000pt" height="200.000000pt" viewBox="0 0 200.000000 200.000000"
 preserveAspectRatio="xMidYMid meet">
<metadata>
Created by potrace 1.10, written by Peter Selinger 2001-2011
</metadata>
<g transform="translate(0.000000,200.000000) scale(0.100000,-0.100000)"
fill="#000000" stroke="none">
<path d="M837 1705 c-274 -102 -452 -328 -489 -620 -31 -250 88 -521 297 -670
140 -100 263 -139 435 -139 130 0 203 16 315 68 133 62 282 197 258 234 -12
19 -12 19 -113 -3 -89 -20 -225 -15 -310 11 -234 71 -411 256 -465 488 -19 80
-19 226 0 301 20 79 85 210 130 262 20 24 35 51 33 60 -4 23 -42 26 -91 8z
m13 -51 c0 -3 -9 -18 -20 -34 -38 -53 -89 -174 -106 -248 -23 -104 -15 -260
19 -364 92 -283 373 -488 667 -487 41 0 95 4 120 9 25 4 47 6 50 3 3 -3 -20
-27 -50 -54 -64 -57 -187 -120 -280 -145 -86 -23 -253 -23 -340 -1 -188 49
-367 191 -448 357 -90 184 -103 346 -42 541 47 152 180 310 325 386 76 40 105
50 105 37z"/>
</g>
</svg>
