<?xml version="1.0" standalone="no"?>
<!DOCTYPE svg PUBLIC "-//W3C//DTD SVG 20010904//EN"
 "http://www.w3.org/TR/2001/REC-SVG-20010904/DTD/svg10.dtd">
<svg version="1.0" xmlns="http://www.w3.org/2000/svg"
 width="148.000000pt" height="148.000000pt" viewBox="0 0 148.000000 148.000000"
 preserveAspectRatio="xMidYMid meet">
<metadata>
Created by potrace 1.10, written by Peter Selinger 2001-2011
</metadata>
<g transform="translate(0.000000,148.000000) scale(0.100000,-0.100000)"
fill="#000000" stroke="none">
<path d="M563 1345 l7 -45 -240 0 -240 0 0 -30 0 -31 251 3 c288 3 279 0 279
95 0 53 0 53 -31 53 l-32 0 6 -45z"/>
<path d="M710 1330 c0 -60 0 -60 30 -60 30 0 30 0 30 60 0 60 0 60 -30 60 -30
0 -30 0 -30 -60z"/>
<path d="M860 1142 c0 -228 2 -250 18 -265 16 -15 50 -17 265 -17 l247 0 0 30
0 31 -236 -2 -236 -1 1 236 2 236 -31 0 -30 0 0 -248z"/>
<path d="M710 1153 c0 -58 0 -58 30 -58 30 0 30 0 30 58 0 57 0 57 -30 57 -30
0 -30 0 -30 -57z"/>
<path d="M90 1153 l0 -28 237 3 238 3 -2 -107 -1 -106 -236 1 -236 2 0 -31 0
-30 248 0 c228 0 250 2 265 18 14 15 17 41 17 144 0 108 -2 127 -18 141 -16
15 -50 17 -265 17 l-247 0 0 -27z"/>
<path d="M710 978 c0 -58 0 -58 30 -58 30 0 30 0 30 58 0 58 0 59 -30 59 -30
0 -30 -1 -30 -59z"/>
<path d="M90 740 c0 -30 0 -30 60 -30 60 0 60 0 60 30 0 30 0 30 -60 30 -60 0
-60 0 -60 -30z"/>
<path d="M270 740 c0 -30 0 -30 58 -30 57 0 57 0 57 30 0 30 0 30 -57 30 -58
0 -58 0 -58 -30z"/>
<path d="M443 740 c0 -30 1 -30 59 -30 58 0 58 0 58 30 0 30 0 30 -58 30 -58
0 -59 0 -59 -30z"/>
<path d="M920 740 c0 -30 0 -30 58 -30 58 0 59 0 59 30 0 30 -1 30 -59 30 -58
0 -58 0 -58 -30z"/>
<path d="M1095 740 c0 -30 0 -30 58 -30 57 0 57 0 57 30 0 30 0 30 -57 30 -58
0 -58 0 -58 -30z"/>
<path d="M1270 740 c0 -30 0 -30 60 -30 60 0 60 0 60 30 0 30 0 30 -60 30 -60
0 -60 0 -60 -30z"/>
<path d="M90 590 l0 -31 236 2 236 1 -1 -236 -2 -236 31 0 30 0 0 248 c0 228
-2 250 -18 265 -16 15 -50 17 -265 17 l-247 0 0 -30z"/>
<path d="M877 602 c-26 -28 -25 -232 1 -255 16 -15 50 -17 265 -17 l247 0 0
28 0 27 -237 -3 -238 -3 1 92 2 91 236 -1 236 -2 0 31 0 30 -248 0 c-228 0
-250 -2 -265 -18z"/>
<path d="M710 502 c0 -58 0 -59 30 -59 30 0 30 1 30 59 0 58 0 58 -30 58 -30
0 -30 0 -30 -58z"/>
<path d="M710 328 c0 -58 0 -58 30 -58 30 0 30 0 30 58 0 57 0 57 -30 57 -30
0 -30 0 -30 -57z"/>
<path d="M892 256 c-28 -15 -32 -28 -32 -98 l0 -68 31 0 32 0 -6 60 -5 60 239
0 239 0 0 28 0 27 -241 0 c-132 0 -248 -4 -257 -9z"/>
<path d="M710 150 c0 -60 0 -60 30 -60 30 0 30 0 30 60 0 60 0 60 -30 60 -30
0 -30 0 -30 -60z"/>
</g>
</svg>
