<?xml version="1.0" standalone="no"?>
<!DOCTYPE svg PUBLIC "-//W3C//DTD SVG 20010904//EN"
 "http://www.w3.org/TR/2001/REC-SVG-20010904/DTD/svg10.dtd">
<svg version="1.0" xmlns="http://www.w3.org/2000/svg"
 width="225.000000pt" height="225.000000pt" viewBox="0 0 225.000000 225.000000"
 preserveAspectRatio="xMidYMid meet">
<metadata>
Created by potrace 1.10, written by Peter Selinger 2001-2011
</metadata>
<g transform="translate(0.000000,225.000000) scale(0.100000,-0.100000)"
fill="#000000" stroke="none">
<path d="M905 2006 c-49 -13 -117 -36 -149 -50 -146 -65 -301 -196 -389 -329
-168 -254 -195 -600 -69 -879 107 -236 315 -417 567 -494 82 -25 105 -28 255
-28 143 -1 175 2 243 22 156 45 273 111 388 220 315 297 372 797 132 1159 -88
133 -243 264 -389 329 -173 77 -408 97 -589 50z m470 -40 c290 -87 512 -313
597 -611 20 -68 23 -103 23 -235 -1 -133 -4 -165 -24 -230 -103 -332 -349
-558 -680 -625 -111 -23 -293 -16 -401 15 -235 67 -423 218 -537 430 -72 133
-103 260 -103 416 0 167 40 312 126 456 43 71 151 195 209 238 106 80 248 143
380 169 28 6 111 8 185 7 111 -3 151 -8 225 -30z"/>
<path d="M1056 1785 c-22 -8 -53 -23 -68 -35 -26 -19 -35 -20 -76 -11 -55 11
-111 2 -167 -27 -42 -21 -56 -36 -97 -96 -14 -20 -46 -50 -71 -65 -88 -57
-137 -165 -117 -257 14 -62 62 -130 117 -165 25 -15 57 -45 71 -66 13 -21 35
-49 47 -63 15 -16 24 -44 28 -78 9 -75 47 -153 103 -206 44 -43 110 -84 144
-91 8 -2 27 -8 43 -14 26 -10 27 -12 27 -94 0 -102 11 -117 87 -117 83 0 83 0
83 262 l0 226 46 30 c42 27 50 29 87 20 100 -23 222 37 272 133 8 14 32 37 53
52 111 73 153 175 121 290 -12 44 -67 109 -121 144 -21 13 -38 28 -38 34 0 6
-18 33 -40 59 -62 74 -153 108 -235 90 -39 -9 -49 -7 -110 25 -73 39 -123 44
-189 20z m129 -26 c22 -6 57 -24 77 -40 32 -25 41 -28 59 -19 27 15 116 15
154 0 50 -19 92 -57 115 -105 15 -31 32 -50 54 -59 66 -28 126 -121 126 -196
0 -78 -57 -164 -129 -196 -27 -12 -41 -26 -50 -50 -7 -18 -32 -51 -57 -73 -59
-51 -120 -66 -195 -47 -49 13 -54 13 -65 -3 -7 -10 -31 -26 -53 -36 l-41 -18
0 -244 0 -243 -55 0 -55 0 0 104 0 104 -43 6 c-148 22 -270 155 -271 294 -1
49 -4 63 -18 68 -21 6 -78 82 -79 103 0 9 -23 27 -52 41 -33 17 -62 41 -82 69
-27 39 -30 50 -30 121 0 71 3 82 30 122 21 28 49 52 83 68 29 14 52 32 52 41
0 29 61 97 105 119 49 24 139 29 174 10 18 -9 27 -6 59 19 58 46 117 59 187
40z"/>
<path d="M920 974 c-19 -7 -41 -11 -47 -9 -19 6 -16 -43 6 -91 22 -49 78 -97
130 -113 71 -21 71 -21 71 73 0 81 -1 84 -25 90 -13 3 -40 20 -59 36 -18 17
-35 29 -37 29 -2 -1 -20 -7 -39 -15z m88 -59 c30 -18 32 -23 32 -73 0 -54 0
-54 -27 -47 -50 12 -113 78 -113 118 0 20 37 38 60 28 8 -3 30 -15 48 -26z"/>
</g>
</svg>
