<?xml version="1.0" standalone="no"?>
<!DOCTYPE svg PUBLIC "-//W3C//DTD SVG 20010904//EN"
 "http://www.w3.org/TR/2001/REC-SVG-20010904/DTD/svg10.dtd">
<svg version="1.0" xmlns="http://www.w3.org/2000/svg"
 width="148.000000pt" height="148.000000pt" viewBox="0 0 148.000000 148.000000"
 preserveAspectRatio="xMidYMid meet">
<metadata>
Created by potrace 1.10, written by Peter Selinger 2001-2011
</metadata>
<g transform="translate(0.000000,148.000000) scale(0.100000,-0.100000)"
fill="#000000" stroke="none">
<path d="M701 1318 c-13 -73 -27 -144 -31 -158 -7 -24 -7 -24 -27 15 -12 22
-44 57 -71 78 -46 35 -92 102 -92 135 0 7 -7 12 -15 12 -11 0 -15 -13 -15 -54
0 -42 8 -69 40 -132 39 -77 50 -127 30 -139 -5 -3 -70 35 -144 85 -75 49 -138
90 -141 90 -15 0 3 -34 80 -146 47 -69 85 -127 85 -130 0 -3 -6 -2 -12 3 -7 4
-62 8 -123 8 -85 0 -118 4 -144 18 -23 11 -38 14 -45 7 -15 -15 63 -83 115
-99 110 -33 162 -62 153 -85 -3 -8 -50 -22 -117 -36 -206 -40 -206 -40 -200
-56 3 -8 15 -14 27 -14 11 0 81 -12 155 -27 l133 -26 -34 -18 c-20 -10 -59
-45 -87 -78 -36 -41 -66 -65 -96 -77 -61 -23 -59 -44 3 -44 36 0 69 10 131 40
91 44 147 53 139 22 -3 -10 -42 -73 -87 -140 -44 -67 -81 -127 -81 -133 0 -17
19 -7 154 86 106 72 124 81 116 59 -6 -14 -9 -69 -9 -123 1 -75 -3 -106 -16
-135 -28 -59 -5 -66 42 -12 28 32 46 66 61 118 12 40 30 83 40 96 34 43 45 21
77 -143 18 -92 35 -155 41 -155 14 0 15 5 45 173 13 70 27 127 31 127 4 0 8
-5 8 -12 0 -6 35 -46 79 -88 53 -52 81 -87 86 -108 15 -69 49 -45 40 28 -2 25
-20 77 -39 115 -44 88 -51 112 -36 130 10 12 34 -1 146 -76 74 -49 139 -87
145 -84 5 4 -28 61 -74 128 -109 159 -103 149 -72 137 15 -6 70 -9 123 -8 78
2 104 -1 135 -16 45 -22 56 -16 33 19 -23 34 -69 62 -136 81 -71 21 -122 52
-118 72 2 12 41 24 157 47 85 17 156 36 158 42 4 12 -32 21 -187 48 -130 23
-131 23 -90 45 19 10 59 45 87 78 36 42 67 66 98 77 51 20 57 32 20 41 -38 9
-91 -4 -164 -41 -83 -41 -126 -51 -134 -31 -3 8 31 70 83 148 49 73 86 136 81
141 -4 4 -66 -32 -137 -81 -71 -49 -130 -88 -131 -87 -2 1 2 17 7 36 6 19 8
67 4 110 -5 64 -3 83 14 122 22 49 16 66 -16 46 -31 -19 -64 -75 -88 -151 -24
-72 -47 -108 -69 -108 -8 0 -21 44 -34 113 -39 193 -42 207 -55 207 -7 0 -20
-50 -35 -132z m69 -90 c22 -115 22 -116 52 -120 25 -4 33 1 54 31 13 20 32 65
43 101 37 119 46 115 44 -15 -1 -63 -7 -124 -14 -136 -8 -17 -8 -24 3 -35 12
-12 27 -5 103 47 50 33 98 68 108 76 37 34 23 3 -48 -102 -69 -104 -72 -110
-58 -132 22 -33 57 -29 149 16 43 21 90 42 104 45 l25 7 -25 -18 c-25 -18 -33
-26 -103 -101 -21 -23 -52 -47 -68 -54 -16 -7 -29 -20 -29 -30 0 -18 31 -27
178 -49 45 -8 82 -16 82 -19 0 -3 -57 -17 -127 -31 -121 -23 -127 -25 -134
-51 -6 -23 -2 -32 23 -53 16 -14 55 -32 86 -41 62 -18 137 -53 129 -60 -2 -2
-17 0 -33 6 -18 7 -57 9 -105 5 -57 -5 -84 -3 -112 8 -30 13 -38 13 -47 2 -10
-11 4 -37 64 -125 42 -61 76 -112 76 -114 0 -3 -50 30 -111 71 -103 70 -113
74 -135 62 -35 -18 -31 -64 11 -144 33 -65 69 -166 42 -120 -7 11 -42 49 -78
85 -37 36 -74 80 -83 98 -32 62 -46 40 -76 -122 -11 -60 -21 -110 -23 -112 -2
-2 -14 52 -26 119 -13 67 -28 128 -34 135 -17 22 -55 14 -77 -18 -12 -17 -33
-66 -46 -109 -13 -43 -31 -85 -40 -92 -15 -12 -16 -11 -8 11 5 14 8 63 6 108
-2 46 2 99 8 118 9 26 9 38 0 49 -10 12 -17 11 -44 -9 -93 -68 -198 -137 -190
-125 4 8 38 60 76 116 63 95 67 104 56 129 -11 23 -16 25 -51 20 -22 -4 -69
-22 -106 -41 -36 -18 -79 -37 -96 -40 l-30 -7 31 20 c16 11 51 44 77 74 25 30
64 63 85 73 67 33 48 50 -82 74 -62 12 -120 21 -129 21 -10 0 -17 5 -17 10 0
6 10 10 23 10 12 0 70 10 129 21 104 21 107 22 113 51 4 16 5 31 3 32 -1 1
-16 12 -31 24 -16 11 -54 28 -85 37 -71 21 -122 44 -122 56 0 6 8 5 19 -1 11
-5 64 -9 118 -8 66 2 106 -2 122 -11 20 -11 25 -11 32 0 5 8 9 17 9 20 0 4
-33 54 -74 113 -41 58 -73 106 -70 106 3 0 52 -31 109 -70 57 -38 110 -70 117
-70 7 0 21 7 31 15 25 18 17 56 -35 162 -22 45 -38 87 -36 95 3 8 11 1 20 -17
9 -16 42 -52 73 -79 31 -27 64 -64 73 -83 30 -62 45 -41 72 105 15 79 28 125
32 115 3 -10 16 -70 28 -135z"/>
</g>
</svg>
